HIERARCHY
ROOT Hips
{
	OFFSET 0.000000 0.000000 0.000000 
	CHANNELS 6 Xposition Yposition Zposition Zrotation Yrotation Xrotation
	JOINT LeftUpLeg
	{
		OFFSET 1.363060 -1.794630 0.839290 
		CHANNELS 3 Zrotation Yrotation Xrotation
		JOINT LeftLeg
		{
			OFFSET 2.448110 -6.726130 0.000000 
			CHANNELS 3 Zrotation Yrotation Xrotation
			JOINT LeftFoot
			{
				OFFSET 2.562200 -7.039590 0.000000 
				CHANNELS 3 Zrotation Yrotation Xrotation
				JOINT LeftToeBase
				{
					OFFSET 0.157640 -0.433110 2.322550 
					CHANNELS 3 Zrotation Yrotation Xrotation
					End Site
					{
						OFFSET 0.000000 0.000000 0.000000 
					}
				}
			}
		}
	}
	JOINT RightUpLeg
	{
		OFFSET -1.305520 -1.794630 0.839290 
		CHANNELS 3 Zrotation Yrotation Xrotation
		JOINT RightLeg
		{
			OFFSET -2.542530 -6.985550 0.000000 
			CHANNELS 3 Zrotation Yrotation Xrotation
			JOINT RightFoot
			{
				OFFSET -2.568260 -7.056230 0.000000 
				CHANNELS 3 Zrotation Yrotation Xrotation
				JOINT RightToeBase
				{
					OFFSET -0.164730 -0.452590 2.363150 
					CHANNELS 3 Zrotation Yrotation Xrotation
					End Site
					{
						OFFSET 0.000000 0.000000 0.000000 
					}
				}
			}
		}
	}
	JOINT Spine
	{
		OFFSET 0.028270 2.035590 -0.193380 
		CHANNELS 3 Zrotation Yrotation Xrotation
		JOINT Spine1
		{
			OFFSET 0.056720 2.048850 -0.042750 
			CHANNELS 3 Zrotation Yrotation Xrotation
			JOINT Neck1
			{
				OFFSET -0.054170 1.746240 0.172020 
				CHANNELS 3 Zrotation Yrotation Xrotation
				JOINT Head
				{
					OFFSET 0.104070 1.761360 -0.123970 
					CHANNELS 3 Zrotation Yrotation Xrotation
					End Site
					{
						OFFSET 0.000000 0.000000 0.000000 
					}
				}
			}
			JOINT LeftArm
			{
				OFFSET 3.362410 1.200890 -0.311210 
				CHANNELS 3 Zrotation Yrotation Xrotation
				JOINT LeftForeArm
				{
					OFFSET 4.983000 -0.000000 -0.000000 
					CHANNELS 3 Zrotation Yrotation Xrotation
					JOINT LeftHand
					{
						OFFSET 3.483560 -0.000000 -0.000000 
						CHANNELS 3 Zrotation Yrotation Xrotation
						JOINT LeftHandIndex1
						{
							OFFSET 0.715260 -0.000000 -0.000000 
							CHANNELS 3 Zrotation Yrotation Xrotation
							End Site
							{
								OFFSET 0.000000 0.000000 0.000000 
							}
						}
					}
				}
			}
			JOINT RightArm
			{
				OFFSET -3.136600 1.374050 -0.404650 
				CHANNELS 3 Zrotation Yrotation Xrotation
				JOINT RightForeArm
				{
					OFFSET -5.241900 -0.000000 -0.000000 
					CHANNELS 3 Zrotation Yrotation Xrotation
					JOINT RightHand
					{
						OFFSET -3.444170 -0.000000 -0.000000 
						CHANNELS 3 Zrotation Yrotation Xrotation
						JOINT RightHandIndex1
						{
							OFFSET -0.622530 -0.000000 -0.000000 
							CHANNELS 3 Zrotation Yrotation Xrotation
							End Site
							{
								OFFSET 0.000000 0.000000 0.000000 
							}
						}
					}
				}
			}
		}
	}
}
MOTION
Frames: 6
Frame Time: 0.041667
4.159377 17.799074 4.948534 22.043743 -87.105545 -17.648482 -17.598348 -6.747354 11.859833 0.052315 7.634708 19.949407 -179.444868 5.729625 -14.500940 1.140900 -6.783100 -19.074300 10.555076 8.450768 -45.543569 -8.125892 -17.021855 51.237541 -0.440298 -17.831771 30.872635 -0.589400 -4.915300 13.667200 1.929589 -7.441185 -5.403986 7.952305 -3.949127 -2.304328 6.451675 -2.931540 7.616449 2.590100 -1.223000 7.804000 -86.641517 -13.333080 39.439683 45.657001 -55.464418 -19.718752 -0.179697 1.861295 3.408526 -7.125000 0.000000 0.000000 83.109408 -20.741527 14.531758 -14.285224 29.404391 -4.777424 -0.260037 0.861965 6.090406 7.125000 0.000000 0.000000 
3.939311 17.779133 4.912397 16.408397 -86.729028 -11.805303 -16.981872 -6.606871 11.534032 0.223975 8.013774 21.097694 -179.541419 6.960185 -13.627522 1.195000 -6.936500 -19.527300 11.275643 7.855855 -42.868436 -7.350249 -16.573106 49.525530 0.038899 -14.655055 26.283658 -0.228100 -3.074400 8.485900 1.963676 -7.467851 -5.445316 7.948341 -3.983078 -2.158843 6.368469 -2.965891 7.754121 2.561900 -1.249300 7.839900 -86.852511 -12.181730 40.025307 44.645262 -55.089571 -19.022463 -0.172323 1.873920 3.720463 -7.125000 0.000000 0.000000 83.299022 -20.398755 14.807746 -14.569039 29.764490 -4.915698 -0.255378 0.865977 5.889550 7.125000 0.000000 0.000000 
3.719145 17.759799 4.874437 11.236498 -86.379624 -6.439535 -16.273155 -6.443532 10.942526 0.461901 8.513215 22.606745 -179.669750 8.435473 -12.378013 1.212200 -6.984500 -19.669400 12.044844 7.307456 -40.314015 -6.603719 -16.111222 47.809560 0.340087 -11.524613 21.449036 -0.086000 -1.891500 5.205800 1.997410 -7.458676 -5.491051 7.952656 -3.994653 -2.037555 6.273996 -3.003972 7.925588 2.532500 -1.279400 7.894100 -87.076080 -11.026943 40.606326 43.525462 -54.642017 -18.262131 -0.165876 1.886043 4.109399 -7.125000 0.000000 0.000000 83.502049 -20.032940 15.074237 -14.840418 30.099732 -5.047699 -0.249450 0.869304 5.723359 7.125000 0.000000 0.000000 
3.502015 17.741679 4.835971 6.034111 -86.087027 -1.065326 -15.455504 -6.255958 10.053059 0.784915 9.138150 24.509191 -179.830578 10.131625 -10.574624 1.183300 -6.903700 -19.430300 12.885897 6.839020 -37.935111 -5.914586 -15.639412 46.030548 0.479925 -8.986158 16.948604 -0.065600 -1.653100 4.547800 2.029025 -7.392969 -5.544546 7.952087 -3.972846 -1.976330 6.178709 -3.046107 8.105684 2.506200 -1.313400 7.948300 -87.313278 -9.872424 41.179660 42.299151 -54.112476 -17.440650 -0.157714 1.895731 4.573248 -7.125000 0.000000 0.000000 83.724926 -19.657640 15.338796 -15.103542 30.414534 -5.173605 -0.244374 0.872667 5.583460 7.125000 0.000000 0.000000 
3.290857 17.725686 4.797910 0.148622 -85.853841 4.952441 -14.515736 -6.047029 8.876350 1.208621 9.877886 26.799110 179.995446 11.956492 -8.091943 1.092600 -6.642800 -18.661400 13.817871 6.476849 -35.747979 -5.281136 -15.153821 44.159910 0.535889 -7.273165 13.137623 -0.117100 -2.205800 6.074800 2.058650 -7.259884 -5.596495 7.931710 -3.915078 -1.963948 6.088102 -3.092870 8.287201 2.485100 -1.350000 8.010900 -87.556881 -8.746278 41.720204 41.010818 -53.515121 -16.591817 -0.147114 1.902890 5.110824 -7.125000 0.000000 0.000000 83.975365 -19.215507 15.603009 -15.352608 30.697750 -5.288778 -0.240416 0.875591 5.481486 7.125000 0.000000 0.000000 
3.088507 17.712526 4.761266 -7.300534 -85.678567 12.482028 -13.430915 -5.816276 7.422541 1.749455 10.718814 29.470744 179.849864 13.770404 -4.951766 0.927400 -6.135100 -17.176900 14.873390 6.275508 -33.764913 -4.703696 -14.663285 42.264587 0.571712 -6.295667 10.070445 -0.233400 -3.109100 8.582600 2.088583 -7.045050 -5.643861 7.877615 -3.814560 -2.005653 6.005461 -3.146096 8.469499 2.471500 -1.389200 8.088300 -87.807235 -7.673272 42.212826 39.656992 -52.840619 -15.720189 -0.125289 1.905484 5.733214 -7.125000 0.000000 0.000000 84.249912 -18.681935 15.884692 -15.589338 30.950145 -5.393064 -0.237172 0.877910 5.417287 7.125000 0.000000 0.000000 
